<svg width="211" height="63" viewBox="0 0 211 63" fill="none" xmlns="http://www.w3.org/2000/svg">
<path d="M20.0745 34.6485L8.84014 46.1362V62.2561H0V0H8.84014V34.8338L42.359 0H52.4883L26.1521 27.9782L54.33 62.2561H44.0165L20.0745 34.6485Z" fill="#FF6060"/>
<path d="M95.6389 39.6512V52.2507L100.98 49.1008V36.5013L95.6389 39.6512Z" fill="#FF6060"/>
<path d="M110.372 24.2725L88.4562 11.4877L76.301 4.44684L64.33 25.3842L64.5142 45.0245L86.2462 57.8092L88.4562 56.5122V37.9836L98.2172 20.752L108.162 26.4959V45.0245L110.372 43.7275V24.2725Z" fill="#FF6060"/>
<path d="M120.372 49.7443L123.872 43.074C127.923 45.8533 134.185 47.8914 140.263 47.8914C148.182 47.8914 151.313 45.4827 151.313 41.4064C151.313 30.8451 121.662 39.9241 121.662 21.2102C121.662 12.6871 129.213 7.12848 141.184 7.12848C147.261 7.12848 154.26 8.79605 158.311 11.3901L154.628 18.0604C150.392 15.2811 145.788 14.3546 141.184 14.3546C133.817 14.3546 130.133 17.1339 130.133 20.8397C130.133 31.9568 159.785 22.8778 159.785 41.2211C159.785 49.7443 152.05 55.1176 139.526 55.1176C131.975 55.3029 124.24 52.8941 120.372 49.7443Z" fill="#FF6060"/>
<path d="M210.67 26.3106V54.8447H202.567V48.545C199.804 52.8066 194.463 55.2153 187.097 55.2153C176.415 55.2153 169.785 49.4714 169.785 41.3188C169.785 33.7221 174.573 27.6076 188.57 27.6076H202.014V25.9401C202.014 18.7139 197.778 14.6376 189.491 14.6376C183.966 14.6376 178.256 16.6758 174.573 19.6403L171.074 13.1553C175.862 9.26433 182.861 7.04089 190.412 7.04089C203.488 7.22618 210.67 13.5259 210.67 26.3106ZM202.199 40.3924V33.7221H189.122C180.651 33.7221 178.256 37.0572 178.256 40.9482C178.256 45.5804 182.124 48.545 188.57 48.545C195.016 48.7303 200.173 45.951 202.199 40.3924Z" fill="#FF6060"/>
</svg>
